<svg width="64" height="64" viewBox="0 0 24 24" fill="none" xmlns="http://www.w3.org/2000/svg">
  <path d="M12 2C6.48 2 2 6.58 2 12.24C2 16.76 4.87 20.59 8.84 21.94C9.34 22.04 9.52 21.72 9.52 21.45V19.72C6.73 20.34 6.14 18.35 6.14 18.35C5.68 17.15 5.03 16.83 5.03 16.83C4.12 16.2 5.1 16.21 5.1 16.21C6.11 16.28 6.64 17.27 6.64 17.27C7.54 18.86 9.01 18.4 9.58 18.13C9.67 17.46 9.93 17 10.22 16.73C7.99 16.47 5.65 15.58 5.65 11.62C5.65 10.49 6.04 9.57 6.69 8.84C6.58 8.58 6.24 7.52 6.79 6.08C6.79 6.08 7.63 5.8 9.5 7.09C10.3 6.86 11.15 6.74 12 6.74C12.85 6.74 13.7 6.86 14.5 7.09C16.37 5.8 17.21 6.08 17.21 6.08C17.76 7.52 17.42 8.58 17.31 8.84C17.96 9.57 18.35 10.49 18.35 11.62C18.35 15.59 16 16.47 13.77 16.73C14.14 17.07 14.48 17.73 14.48 18.74V21.45C14.48 21.72 14.66 22.05 15.17 21.94C19.13 20.59 22 16.76 22 12.24C22 6.58 17.52 2 12 2Z" fill="#F5F5F7"/>
</svg>
