<svg width="64" height="64" viewBox="0 0 24 24" fill="none" xmlns="http://www.w3.org/2000/svg">
  <path d="M6.94 8.5H3.56V20H6.94V8.5ZM5.25 3C4.17 3 3.5 3.72 3.5 4.67C3.5 5.6 4.15 6.33 5.21 6.33H5.23C6.34 6.33 7.02 5.6 7.02 4.67C7 3.72 6.34 3 5.25 3ZM20.5 13.08C20.5 9.56 18.62 7.92 16.12 7.92C14.1 7.92 13.19 9.04 12.68 9.83V8.5H9.31C9.35 9.39 9.31 20 9.31 20H12.68V13.58C12.68 13.24 12.71 12.9 12.8 12.66C13.07 11.98 13.67 11.28 14.7 11.28C16.05 11.28 16.59 12.32 16.59 13.83V20H19.97V13.44C19.97 13.32 20.5 13.08 20.5 13.08Z" fill="#F5F5F7"/>
</svg>
